<?xml version="1.0" encoding="UTF-8" standalone="no"?>
<!-- Created with Inkscape (http://www.inkscape.org/) -->

<svg
   width="32"
   height="32"
   viewBox="0 0 32 32"
   version="1.1"
   id="svg1"
   inkscape:version="1.4.2 (ebf0e940d0, 2025-05-08)"
   sodipodi:docname="favicon.svg"
   inkscape:export-filename="favicon.png"
   inkscape:export-xdpi="96"
   inkscape:export-ydpi="96"
   xmlns:inkscape="http://www.inkscape.org/namespaces/inkscape"
   xmlns:sodipodi="http://sodipodi.sourceforge.net/DTD/sodipodi-0.dtd"
   xmlns="http://www.w3.org/2000/svg"
   xmlns:svg="http://www.w3.org/2000/svg">
  <sodipodi:namedview
     id="namedview1"
     pagecolor="#ffffff"
     bordercolor="#000000"
     borderopacity="0.25"
     inkscape:showpageshadow="2"
     inkscape:pageopacity="0.0"
     inkscape:pagecheckerboard="0"
     inkscape:deskcolor="#d1d1d1"
     inkscape:document-units="px"
     inkscape:zoom="11.373605"
     inkscape:cx="7.0777911"
     inkscape:cy="12.177318"
     inkscape:window-width="1920"
     inkscape:window-height="1043"
     inkscape:window-x="0"
     inkscape:window-y="0"
     inkscape:window-maximized="1"
     inkscape:current-layer="layer1" />
  <defs
     id="defs1">
    <inkscape:path-effect
       effect="bend_path"
       id="path-effect12"
       is_visible="true"
       lpeversion="0"
       bendpath="M 0,0 H 1"
       prop_scale="1"
       scale_y_rel="false"
       vertical="false"
       hide_knot="false" />
    <inkscape:path-effect
       effect="bend_path"
       id="path-effect11"
       is_visible="true"
       lpeversion="1"
       bendpath="M 0.1862523,9.1144395 H 1.903377"
       prop_scale="0.46"
       scale_y_rel="false"
       vertical="false"
       hide_knot="false" />
    <inkscape:path-effect
       effect="mirror_symmetry"
       start_point="8,8"
       end_point="8,14.328125"
       center_point="8,11.164062"
       id="path-effect3"
       is_visible="true"
       lpeversion="1.2"
       lpesatellites=""
       mode="free"
       discard_orig_path="false"
       fuse_paths="false"
       oposite_fuse="false"
       split_items="false"
       split_open="false"
       link_styles="false" />
    <inkscape:path-effect
       center_point="8,6.84375"
       end_point="8,16"
       start_point="8,-2.3125"
       effect="mirror_symmetry"
       id="path-effect4"
       is_visible="true"
       lpeversion="1.2"
       lpesatellites=""
       mode="free"
       discard_orig_path="false"
       fuse_paths="false"
       oposite_fuse="false"
       split_items="false"
       split_open="false"
       link_styles="false" />
    <inkscape:path-effect
       center_point="8,6.84375"
       end_point="8,16"
       start_point="8,-2.3125"
       effect="mirror_symmetry"
       id="path-effect1"
       is_visible="true"
       lpeversion="1.2"
       lpesatellites=""
       mode="free"
       discard_orig_path="false"
       fuse_paths="false"
       oposite_fuse="false"
       split_items="false"
       split_open="false"
       link_styles="false" />
  </defs>
  <g
     inkscape:groupmode="layer"
     id="layer5"
     inkscape:label="Layer 2"
     style="opacity:0.512"
     transform="matrix(0.72625112,0,0,0.78234819,2.4792703,2.9745878)" />
  <g
     inkscape:label="Layer 1"
     inkscape:groupmode="layer"
     id="layer1"
     transform="matrix(1.7475963,0,0,1.8825841,-3.5900399,-7.9408326)">
    <path
       id="path2-0"
       style="opacity:0.512;fill:#6c7086;fill-opacity:1;fill-rule:evenodd;stroke-width:2.64543"
       d="m 17.583218,12.606177 a 8.7305249,5.9438724 51.454932 0 0 -0.139859,-0.340216 8.7305249,5.9438724 51.454932 0 0 -1.47522,-2.3597663 l 0.319424,2.9746493 z"
       inkscape:label="path30" />
    <path
       id="path8-9"
       style="opacity:0.512;fill:#94e2d5;fill-opacity:1;fill-rule:evenodd;stroke-width:2.64543"
       d="m 17.583218,12.606177 -1.295655,0.274667 0.771648,7.204399 a 8.7305249,5.9438724 51.454932 0 0 0.524007,-7.479066 z"
       inkscape:label="path60" />
    <path
       d="m 4.3117332,12.395705 a 8.7305249,5.9438724 51.454932 0 0 0.8256227,2.479015 8.7305249,5.9438724 51.454932 0 0 0.1801847,0.332034 L 6.6137951,14.93214 Z"
       style="opacity:0.512;fill:#6c7086;fill-rule:evenodd;stroke-width:2.64543"
       id="path10" />
    <path
       id="path6-6"
       style="opacity:0.512;fill:#94e2d5;fill-opacity:1;fill-rule:evenodd;stroke-width:2.64543"
       d="m 6.6141265,14.931526 -1.2973467,0.275026 a 8.7305249,5.9438724 51.454932 0 0 6.9048672,5.904211 z"
       inkscape:label="path40" />
    <path
       id="path5-0"
       style="opacity:0.512;fill:#94e2d5;fill-opacity:1;fill-rule:evenodd;stroke-width:2.64543"
       d="m 14.048075,13.355596 -5.1961524,1.101537 5.7621384,6.085568 z"
       inkscape:label="path50" />
    <path
       id="path4-6"
       style="opacity:0.512;fill:#6c7086;fill-opacity:1;fill-rule:evenodd;stroke-width:2.64543"
       d="M 7.6384754,5.9120372 A 8.7305249,5.9438724 51.454932 0 0 4.2428499,9.5907994 L 8.8519226,14.457133 14.048075,13.355596 13.595625,7.60584 A 8.7305249,5.9438724 51.454932 0 0 7.6384754,5.9120372 Z"
       inkscape:label="path20" />
    <path
       id="path2"
       style="fill:#6c7086;fill-opacity:1;fill-rule:evenodd;stroke-width:2.64543"
       d="m 18.295296,11.267064 a 8.7305249,5.9438724 51.454932 0 0 -0.139859,-0.340216 8.7305249,5.9438724 51.454932 0 0 -1.47522,-2.3597663 l 0.319424,2.9746493 z"
       inkscape:label="path3" />
    <path
       id="path8"
       style="fill:#94e2d5;fill-opacity:1;fill-rule:evenodd;stroke-width:2.64543"
       d="m 18.295296,11.267064 -1.295655,0.274667 0.771648,7.2044 a 8.7305249,5.9438724 51.454932 0 0 0.524007,-7.479067 z"
       inkscape:label="path6" />
    <path
       d="m 5.0244043,11.055089 a 8.7305249,5.9438724 51.454932 0 0 0.8229333,2.481512 8.7305249,5.9438724 51.454932 0 0 0.1801847,0.332033 l 1.2989438,-0.27711 z"
       style="fill:#6c7086;fill-rule:evenodd;stroke-width:2.64543"
       id="path9" />
    <path
       id="path6"
       style="fill:#94e2d5;fill-opacity:1;fill-rule:evenodd;stroke-width:2.64543"
       d="m 7.3262046,13.592413 -1.2973467,0.275026 a 8.7305249,5.9438724 51.454932 0 0 6.9048671,5.904212 z"
       inkscape:label="path4" />
    <path
       id="path5"
       style="fill:#94e2d5;fill-opacity:1;fill-rule:evenodd;stroke-width:2.64543"
       d="M 14.760153,12.016483 9.5640007,13.11802 15.326139,19.203589 Z" />
    <path
       id="path4"
       style="fill:#6c7086;fill-opacity:1;fill-rule:evenodd;stroke-width:2.64543"
       d="M 8.3505535,4.5729242 A 8.7305249,5.9438724 51.454932 0 0 4.954928,8.2516864 L 9.5640007,13.11802 14.760153,12.016483 14.307703,6.266727 A 8.7305249,5.9438724 51.454932 0 0 8.3505535,4.5729242 Z"
       inkscape:label="path2" />
    <path
       style="display:inline;opacity:0;fill:#3166b7;fill-rule:evenodd;stroke-width:1.09635"
       d="M 7.4761652,1.9536143 17.552339,23.087483 16.60642,23.288009 1.181233,6.2266066 2.1271518,6.0260803 3.0730705,5.825554 15.712492,19.228568 17.552339,23.087483 M 7.4761652,1.9536143 17.552339,23.087483 18.498258,22.886956 16.315933,3.0181861 l -0.945919,0.2005263 -0.945918,0.2005263 1.288396,15.8093293 1.839847,3.858915"
       id="path1"
       inkscape:label="pathV" />
    <path
       style="opacity:0;fill:#000000;fill-rule:evenodd"
       d="m 15.32614,19.203588 -3.164063,-6.636337 -2.5982595,0.550808 z m 0,0 -3.164063,-6.636337 2.59826,-0.550808 z"
       id="path3"
       inkscape:label="pathC" />
  </g>
</svg>
